<svg xmlns="http://www.w3.org/2000/svg" width="240" height="240" viewBox="0 0 240 240">
  <defs>
    <pattern id="circuit" width="240" height="240" patternUnits="userSpaceOnUse">
      <g fill="none" stroke="#D90429" stroke-width="1.4" opacity="0.9">
        <path d="M0 40 H60 V10 H120"/>
        <path d="M120 10 V50 H180 V90"/>
        <path d="M180 90 H240"/>
        <path d="M0 120 H40 V160 H90 V200"/>
        <path d="M90 200 H150"/>
        <path d="M150 200 V150 H210 V120 H240"/>
        <path d="M60 10 V-10"/>
        <path d="M40 160 V240"/>
      </g>
      <g fill="#D90429">
        <circle cx="60" cy="10" r="3"/>
        <circle cx="120" cy="10" r="3"/>
        <circle cx="120" cy="50" r="3"/>
        <circle cx="180" cy="90" r="3"/>
        <circle cx="40" cy="120" r="2.5"/>
        <circle cx="40" cy="160" r="2.5"/>
        <circle cx="90" cy="200" r="2.5"/>
        <circle cx="150" cy="200" r="2.5"/>
        <circle cx="210" cy="120" r="2.5"/>
      </g>
      <g fill="none" stroke="#D90429" stroke-width="1.4" opacity="0.55">
        <path d="M180 90 V140 H220"/>
        <path d="M0 200 H20 V230"/>
        <path d="M200 0 V30 H240"/>
      </g>
      <g fill="#D90429" opacity="0.55">
        <circle cx="220" cy="140" r="2"/>
        <circle cx="20" cy="230" r="2"/>
        <circle cx="200" cy="30" r="2"/>
      </g>
      <!-- fork-inspired tine cluster, echoing the brand mark -->
      <g stroke="#D90429" stroke-width="1.6" stroke-linecap="round" opacity="0.8">
        <line x1="150" y1="60" x2="150" y2="30"/>
        <line x1="158" y1="60" x2="162" y2="28"/>
        <line x1="166" y1="60" x2="174" y2="30"/>
        <path d="M148 60 H176 V72 Q176 84 162 84 Q148 84 148 72 Z" fill="none"/>
      </g>
    </pattern>
  </defs>
  <rect width="240" height="240" fill="url(#circuit)"/>
</svg>
